# xmcd
#
# Track frame offsets:
#	300
#	14760
#	31992
#	42567
#	60117
#	77703
#	94625
#	107567
#	125191
#	142816
#	160694
#	171865
#	186309
#
# Disc length: 2582 seconds
# Revision: 0
# Processed by: cddbd v1.5.2PL0 Copyright (c) Steve Scherf et al.
# Submitted via: dBpowerAMP V12.0
#
DISCID=a80a120d
DTITLE=Lisa Aschmann - The Pear
DYEAR=2003
DGENRE=Country
TTITLE0=All For You
TTITLE1=Rainbow
TTITLE2=A Kiss For No Reason
TTITLE3=Love Is All About You
TTITLE4=Don't Forget To Dream
TTITLE5=Lullaby For David
TTITLE6=The Answers To It All
TTITLE7=Water Over Stone
TTITLE8=The Pear
TTITLE9=Much Less
TTITLE10=Heart's Home
TTITLE11=Close Your Eyes
TTITLE12=The Sky Is A Sea
EXTD=
EXTT0=
EXTT1=
EXTT2=
EXTT3=
EXTT4=
EXTT5=
EXTT6=
EXTT7=
EXTT8=
EXTT9=
EXTT10=
EXTT11=
EXTT12=
PLAYORDER=
